<?xml version="1.0" encoding="UTF-8" standalone="no"?>
<!-- (c) & (t) GitHub, Inc. -->
<svg version="1.1" xmlns="http://www.w3.org/2000/svg" viewBox="0 0 32 32"><g>
<path style="fill:#1b1817;fill-opacity:1;fill-rule:evenodd;stroke:none" d="M
 15.998527,0.39484195 C 7.1633875,0.39484195 0,7.5582293 0,16.395333 c
 0,7.069094 4.5840568,13.065595 10.942018,15.182295 0.800516,0.146352
 1.092237,-0.347708 1.092237,-0.772031 0,-0.379139 -0.01375,-1.385923
 -0.02161,-2.720771 C 7.5621747,29.051339 6.6231647,25.939641
 6.6231647,25.939641 5.8953339,24.09207 4.8463146,23.599974 4.8463146,23.599974
 c -1.4527143,-0.993032 0.11001,-0.973387 0.11001,-0.973387 1.6059425,0.113938
 2.4506579,1.64916 2.4506579,1.64916 1.4271775,2.444765 3.7452345,1.738543
 4.6567425,1.329937 0.14537,-1.034286 0.557905,-1.739526 1.015623,-2.139293
 -3.5527174,-0.403695 -7.28813,-1.77685 -7.28813,-7.907916 0,-1.746401
 0.6237149,-3.17456 1.647196,-4.293317 -0.1650142,-0.404679 -0.7140794,-2.0312482
 0.1561743,-4.234385 0,0 1.3436876,-0.4302158 4.4003807,1.6403199 1.275914,-0.354584
 2.645139,-0.532367 4.005525,-0.5382603 1.358421,0.00589 2.727646,0.1836763
 4.005525,0.5382603 3.054728,-2.0705357 4.395469,-1.6403199 4.395469,-1.6403199
 0.8732,2.2031368 0.324135,3.829706 0.159121,4.234385 1.025446,1.118757
 1.645231,2.546916 1.645231,4.293317 0,6.146782 -3.741305,7.499309 -7.30581,7.895148
 0.574603,0.49406 1.086344,1.470395 1.086344,2.963381 0,2.13831 -0.01965,3.864084
 -0.01965,4.388593 0,0.428252 0.287793,0.926242 1.100096,0.770067
 C 27.419871,29.455034 32,23.462463 32,16.395333 32,7.5582293 24.83563,0.39484195
 15.998527,0.39484195"/>
</g></svg>
